{"title":"The Sea Hawk(1940)MP-4[DaScubaDude]","uid":12664479,"size":1258903399,"categoryP":"video","categoryS":"movies","magnet":"?xt=urn:btih:8b9299132b78137c59c1e27197b63139fb66f50b&amp;dn=The+Sea+Hawk%281940%29MP-4%5BDaScubaDude%5D&amp;tr=udp%3A%2F%2Ftracker.leechers-paradise.org%3A6969&amp;tr=udp%3A%2F%2Fzer0day.ch%3A1337&amp;tr=udp%3A%2F%2Fopen.demonii.com%3A1337&amp;tr=udp%3A%2F%2Ftracker.coppersurfer.tk%3A6969&amp;tr=udp%3A%2F%2Fexodus.desync.com%3A6969","seeders":1,"leechers":0,"uploader":"dascuba","files":1,"time":1446349626,"description":"The Sea Hawk (1940)\r\nApproved  |  127 min  |  Action, Adventure, Romance  |  1 July 1940 (USA)\r\n7.8 Your rating:   -/10   Ratings: 7.8/10 from 6,741 users   \r\nReviews: 69 user | 44 critic\r\nGeoffrey Thorpe, a buccaneer, is hired by Queen Elizabeth I to nag the Spanish Armada. The Armada is waiting for the attack on England and Thorpe surprises them with attacks on their galleons where he shows his skills on the sword.\r\n\r\nDirector: Michael Curtiz\r\nWriters: Howard Koch (screen play), Seton I. Miller (screen play)\r\nStars: Errol Flynn, Brenda Marshall, Claude Rains\r\n\r\nGeneral\r\nComplete name                            : C:The Sea HawkTHE_SEA_HAWK_Title1.mp4\r\nFormat                                   : MPEG-4\r\nFormat profile                           : Base Media\r\nCodec ID                                 : isom\r\nFile size                                : 1.17 GiB\r\nDuration                                 : 2h 7mn\r\nOverall bit rate mode                    : Variable\r\nOverall bit rate                         : 1 316 Kbps\r\nMovie name                               : THE_SEA_HAWK\r\nGenre                                    : Adventure_Pirate\r\nWriting application                      : Lavf54.6.100\r\n\r\nVideo\r\nID                                       : 1\r\nFormat                                   : AVC\r\nFormat/Info                              : Advanced Video Codec\r\nFormat profile                           :   \r\nFormat settings, CABAC                   : No\r\nFormat settings, ReFrames                : 6 frames\r\nCodec ID                                 : avc1\r\nCodec ID/Info                            : Advanced Video Coding\r\nDuration                                 : 2h 7mn\r\nSource duration                          : 2h 7mn\r\nBit rate                                 : 1 202 Kbps\r\nWidth                                    : 720 pixels\r\nHeight                                   : 540 pixels\r\nDisplay aspect ratio                     : 4:3\r\nFrame rate mode                          : Constant\r\nFrame rate                               : 29.970 fps\r\nColor space                              : YUV\r\nChroma subsampling                       : 4:2:0\r\nBit depth                                : 8 bits\r\nScan type                                : Progressive\r\nBits/(Pixel*Frame)                       : 0.103\r\nStream size                              : 1.07 GiB (91%)\r\nSource stream size                       : 1.07 GiB (91%)\r\n\r\nAudio\r\nID                                       : 2\r\nFormat                                   : AAC\r\nFormat/Info                              : Advanced Audio Codec\r\nFormat profile                           : LC\r\nCodec ID                                 : 40\r\nDuration                                 : 2h 7mn\r\nBit rate mode                            : Variable\r\nBit rate                                 : 107 Kbps\r\nMaximum bit rate                         : 115 Kbps\r\nChannel(s)                               : 2 channels\r\nChannel(s)_Original                      : 1 channel\r\nChannel positions                        : Front: C\r\nSampling rate                            : 44.1 KHz\r\nCompression mode                         : Lossy\r\nStream size                              : 97.6 MiB (8%)","torrent":{"xt":"urn:btih:8b9299132b78137c59c1e27197b63139fb66f50b","amp;dn":"The+Sea+Hawk%281940%29MP-4%5BDaScubaDude%5D","amp;tr":["udp%3A%2F%2Ftracker.leechers-paradise.org%3A6969","udp%3A%2F%2Fzer0day.ch%3A1337","udp%3A%2F%2Fopen.demonii.com%3A1337","udp%3A%2F%2Ftracker.coppersurfer.tk%3A6969","udp%3A%2F%2Fexodus.desync.com%3A6969"],"infoHash":"8b9299132b78137c59c1e27197b63139fb66f50b","infoHashBuffer":{"type":"Buffer","data":[139,146,153,19,43,120,19,124,89,193,226,113,151,182,49,57,251,102,245,11]},"announce":[],"urlList":[]}}